Coordinates
version=1
nRows=28
nColumns=33
inDegrees=yes

Units are S.I. units (second, meters, Newtons, ...)
Angles are in degrees.

endheader
time	ground_thorax_rot_x	ground_thorax_rot_y	ground_thorax_rot_z	ground_thorax_tx	ground_thorax_ty	ground_thorax_tz	clav_prot_r	clav_elev_r	scapula_abduction_r	scapula_elevation_r	scapula_upward_rot_r	scapula_winging_r	shoulder_elv_r	plane_of_elev_r	axial_rot_r	elbow_flexion_r	pro_sup_r	wrist_flex_r	wrist_dev_r	clav_prot_l	clav_elev_l	scapula_abduction_l	scapula_elevation_l	scapula_upward_rot_l	scapula_winging_l	shoulder_elv_l	plane_of_elev_l	axial_rot_l	elbow_flexion_l	pro_sup_l	wrist_flex_l	wrist_dev_l	
4.5800	30.261553	30.786342	39.068118	-28.937689	789.091822	-44.989049	12.654509	35.353409	26.433865	45.000000	-45.000000	-446.016913	-3707.407995	159.705708	25.869637	1.114987	168.550901	12.083072	14.441595	-10.824365	-45.000000	-36.027478	45.000000	-45.000000	-4216.860193	-91.484045	136.955023	-137.554494	1069.358769	405.690434	12.339561	-16.535571	
4.5900	30.337918	30.502542	38.822875	-32.032171	790.911859	-45.001172	12.676890	35.297541	26.423243	45.000000	-45.000000	-446.205613	-3707.333925	159.685549	25.838302	1.098422	168.077878	12.074944	14.521320	-10.677858	-45.000000	-36.188736	45.000000	-45.000000	-4216.726089	-91.323367	136.890188	-137.358559	1069.380872	405.622031	12.393517	-16.602008	
4.6000	30.410795	30.218754	38.582765	-35.078278	792.791075	-45.018383	12.695287	35.250746	26.418055	45.000000	-45.000000	-446.395460	-3707.261582	159.665969	25.795307	1.076837	167.560674	12.067547	14.597348	-10.533970	-45.000000	-36.345934	45.000000	-45.000000	-4216.594418	-91.163964	136.828369	-137.160981	1069.408259	405.574187	12.441365	-16.675344	
4.6100	30.479963	29.934692	38.345697	-38.073456	794.726313	-45.039112	12.707948	35.215240	26.417209	45.000000	-45.000000	-446.584260	-3707.192220	159.644136	25.736962	1.052297	167.008104	12.061506	14.668171	-10.393582	-45.000000	-36.498379	45.000000	-45.000000	-4216.468749	-91.001961	136.768527	-136.961464	1069.437384	405.545763	12.482724	-16.753047	
4.6200	30.542938	29.653561	38.114549	-41.015445	796.714237	-45.061972	12.723242	35.179039	26.417779	45.000000	-45.000000	-446.774555	-3707.125473	159.616496	25.664926	1.023895	166.424492	12.057485	14.734200	-10.250428	-45.000000	-36.651101	45.000000	-45.000000	-4216.342467	-90.840710	136.708492	-136.763316	1069.468117	405.532123	12.520469	-16.836814	
4.6300	30.600399	29.375755	37.888473	-43.902022	798.751292	-45.086076	12.733940	35.148364	26.422008	45.000000	-45.000000	-446.963307	-3707.062996	159.586164	25.575089	0.992948	165.819763	12.056097	14.794263	-10.107965	-45.000000	-36.800508	45.000000	-45.000000	-4216.219049	-90.679010	136.649932	-136.566014	1069.500399	405.526717	12.554160	-16.923904	
4.6400	30.651075	29.104409	37.667874	-46.730432	800.833531	-45.111314	12.750235	35.111640	26.428510	45.000000	-45.000000	-447.152438	-3707.004449	159.552691	25.472618	0.958142	165.196393	12.057705	14.848901	-9.961418	-45.000000	-36.952776	45.000000	-45.000000	-4216.094140	-90.520202	136.590041	-136.369725	1069.533036	405.520913	12.588083	-17.015620	
4.6500	30.695765	28.840089	37.450800	-49.496905	802.956476	-45.138557	12.765789	35.076784	26.437857	45.000000	-45.000000	-447.339943	-3706.950774	159.517584	25.354572	0.919924	164.561690	12.062597	14.897769	-9.815769	-45.000000	-37.104654	45.000000	-45.000000	-4215.972571	-90.362312	136.530119	-136.171380	1069.564736	405.505755	12.622615	-17.109080	
4.6600	30.733908	28.583832	37.239975	-52.196704	805.115241	-45.169616	12.787350	35.034974	26.448745	45.000000	-45.000000	-447.527160	-3706.899374	159.479492	25.226677	0.874397	163.918802	12.071966	14.940474	-9.667021	-45.000000	-37.258309	45.000000	-45.000000	-4215.848852	-90.209062	136.469826	-135.974248	1069.596355	405.471836	12.660779	-17.205697	
4.6700	30.766268	28.334850	37.033993	-54.824311	807.304668	-45.207054	12.808858	34.992070	26.462114	45.000000	-45.000000	-447.710466	-3706.850019	159.440226	25.088459	0.821895	163.275176	12.086131	14.976275	-9.518715	-45.000000	-37.410715	45.000000	-45.000000	-4215.726639	-90.057849	136.409907	-135.776013	1069.625706	405.411096	12.703038	-17.303250	
4.6800	30.792146	28.095064	36.835423	-57.373906	809.519489	-45.253765	12.834848	34.942037	26.478369	45.000000	-45.000000	-447.891052	-3706.800219	159.401269	24.943597	0.760631	162.635493	12.106016	15.005150	-9.368193	-45.000000	-37.564710	45.000000	-45.000000	-4215.603394	-89.911072	136.349650	-135.577871	1069.653728	405.316716	12.750776	-17.403089	
4.6900	30.811732	27.863159	36.642246	-59.840291	811.754755	-45.312578	12.861129	34.888908	26.497765	45.000000	-45.000000	-448.067303	-3706.752078	159.360552	24.791687	0.693286	162.005107	12.131007	15.027656	-9.216227	-45.000000	-37.718686	45.000000	-45.000000	-4215.481188	-89.764857	136.287525	-135.376226	1069.676982	405.183928	12.804561	-17.503947	
4.7000	30.825236	27.639247	36.457066	-62.219448	814.005842	-45.385829	12.887702	34.833254	26.522235	45.000000	-45.000000	-448.241573	-3706.705559	159.318425	24.634404	0.618173	161.390158	12.162556	15.043839	-9.064032	-45.000000	-37.871849	45.000000	-45.000000	-4215.359367	-89.620347	136.224861	-135.170835	1069.695670	405.010125	12.864151	-17.606552	
4.7100	30.833937	27.421899	36.276529	-64.509033	816.268464	-45.475146	12.912391	34.776459	26.552018	45.000000	-45.000000	-448.410723	-3706.663586	159.274888	24.472711	0.539032	160.794641	12.199488	15.054245	-8.911225	-45.000000	-38.023330	45.000000	-45.000000	-4215.238993	-89.474487	136.159391	-134.958968	1069.706719	404.794898	12.930384	-17.710965	
4.7200	30.840188	27.211509	36.101470	-66.708306	818.538264	-45.581359	12.934237	34.727811	26.592967	45.000000	-45.000000	-448.581982	-3706.629853	159.230131	24.300939	0.455897	160.223775	12.243169	15.060119	-8.768274	-45.000000	-38.170626	45.000000	-45.000000	-4215.122810	-89.328844	136.094747	-134.737312	1069.712031	404.540811	13.001096	-17.818336	
4.7300	30.846925	27.004159	35.929036	-68.818085	820.810646	-45.704601	12.952692	34.688901	26.648508	45.000000	-45.000000	-448.753164	-3706.608288	159.183159	24.119293	0.373492	159.679458	12.292270	15.061931	-8.635847	-45.000000	-38.312071	45.000000	-45.000000	-4215.009474	-89.182721	136.029784	-134.505617	1069.711436	404.252169	13.076771	-17.931079	
4.7400	30.854521	26.803635	35.761981	-70.840375	823.080513	-45.844431	12.967729	34.656480	26.711933	45.000000	-45.000000	-448.920908	-3706.592171	159.137293	23.926972	0.288680	159.162466	12.346276	15.060613	-8.509646	-45.000000	-38.449232	45.000000	-45.000000	-4214.899296	-89.039605	135.966504	-134.267577	1069.708154	403.934181	13.154188	-18.047584	
4.7500	30.863475	26.609405	35.600013	-72.777898	825.342085	-45.999938	12.979848	34.624145	26.779633	45.000000	-45.000000	-449.078123	-3706.579316	159.093748	23.727624	0.205720	158.668944	12.401690	15.056507	-8.382884	-45.000000	-38.582799	45.000000	-45.000000	-4214.790495	-88.899436	135.902843	-134.029101	1069.703189	403.592200	13.233669	-18.168631	
4.7600	30.872713	26.425973	35.444249	-74.633714	827.588958	-46.169811	12.986688	34.590984	26.839700	45.000000	-45.000000	-449.222102	-3706.562554	159.052171	23.519167	0.120157	158.197026	12.457235	15.051971	-8.250484	-45.000000	-38.715984	45.000000	-45.000000	-4214.686163	-88.765009	135.840682	-133.793861	1069.696867	403.232346	13.311033	-18.288480	
4.7700	30.882711	26.252128	35.294785	-76.410910	829.814242	-46.352356	12.990159	34.554462	26.891652	45.000000	-45.000000	-449.351717	-3706.542375	159.010661	23.303013	0.035247	157.742799	12.510423	15.047382	-8.112418	-45.000000	-38.848138	45.000000	-45.000000	-4214.585323	-88.636743	135.779437	-133.567437	1069.691258	402.860045	13.386579	-18.407884	
4.7800	30.892026	26.091589	35.153245	-78.112225	832.010604	-46.545480	12.988941	34.513591	26.930668	45.000000	-45.000000	-449.466966	-3706.516159	158.969832	23.080776	-0.050420	157.304404	12.560622	15.043325	-7.964767	-45.000000	-38.981370	45.000000	-45.000000	-4214.488603	-88.515780	135.718929	-133.350334	1069.686102	402.481675	13.458633	-18.523950	
4.7900	30.902157	25.942168	35.021352	-79.739725	834.170330	-46.746717	12.982977	34.472200	26.965284	45.000000	-45.000000	-449.573178	-3706.490909	158.930230	22.853428	-0.135233	156.881158	12.608234	15.039762	-7.813876	-45.000000	-39.110497	45.000000	-45.000000	-4214.393721	-88.400578	135.659669	-133.141497	1069.681488	402.104423	13.528593	-18.638881	
4.8000	30.913835	25.803451	34.898994	-81.294687	836.285436	-46.953323	12.973228	34.432544	26.997321	45.000000	-45.000000	-449.674293	-3706.468421	158.890828	22.624196	-0.221697	156.474543	12.655039	15.036669	-7.663359	-45.000000	-39.234582	45.000000	-45.000000	-4214.300526	-88.292191	135.602424	-132.938442	1069.675864	401.737107	13.595664	-18.752045	
4.8100	30.928725	25.673412	34.786242	-82.777469	838.347618	-47.162416	12.960285	34.395962	27.030923	45.000000	-45.000000	-449.772404	-3706.451764	158.851736	22.395135	-0.310098	156.087667	12.702498	15.033712	-7.517226	-45.000000	-39.350896	45.000000	-45.000000	-4214.207428	-88.190005	135.547210	-132.740573	1069.669773	401.388444	13.660426	-18.865610	
4.8200	30.944615	25.555254	34.682930	-84.187678	840.348266	-47.371188	12.944531	34.358130	27.058334	45.000000	-45.000000	-449.861944	-3706.436757	158.813646	22.173469	-0.399542	155.724349	12.750628	15.030047	-7.368196	-45.000000	-39.465528	45.000000	-45.000000	-4214.114708	-88.095665	135.493122	-132.547762	1069.661709	401.066901	13.721291	-18.977834	
4.8300	30.960887	25.450034	34.589185	-85.524554	842.278559	-47.577094	12.925028	34.317629	27.074977	45.000000	-45.000000	-449.942139	-3706.421946	158.775096	21.960981	-0.492377	155.389238	12.800717	15.026222	-7.213056	-45.000000	-39.578668	45.000000	-45.000000	-4214.021435	-88.008916	135.439467	-132.361842	1069.650821	400.779695	13.778005	-19.088595	
4.8400	30.977909	25.356585	34.502210	-86.787322	844.129389	-47.778074	12.903056	34.277807	27.083731	45.000000	-45.000000	-450.013333	-3706.409672	158.735411	21.758733	-0.584987	155.088814	12.853424	15.021651	-7.057845	-45.000000	-39.690542	45.000000	-45.000000	-4213.930370	-87.931096	135.386815	-132.183254	1069.636776	400.532857	13.830047	-19.200070	
4.8500	30.996886	25.274044	34.420569	-87.975665	845.891484	-47.972700	12.877499	34.239819	27.087330	45.000000	-45.000000	-450.077039	-3706.400672	158.694911	21.563452	-0.677661	154.830109	12.910354	15.016727	-6.902840	-45.000000	-39.797643	45.000000	-45.000000	-4213.840408	-87.862013	135.333040	-132.012997	1069.620954	400.330067	13.878115	-19.315251	
